<svg width="1000" height="859" viewBox="0 0 1000 859" fill="none" xmlns="http://www.w3.org/2000/svg">
<path d="M213.831 379.244L166.137 405.481C155.008 411.842 143.084 413.432 130.366 410.252C117.647 407.072 108.108 399.916 101.749 388.785L6.3593 221.822C0 210.691 -1.58983 198.765 1.58983 186.044C4.76948 173.323 11.9237 163.783 23.0525 157.422L297.297 0H380.763C387.917 0 393.68 2.18642 398.052 6.55926C402.425 10.9321 404.611 16.6963 404.611 23.8519V47.7037C404.611 73.9407 413.951 96.4012 432.631 115.085C451.312 133.769 473.768 143.111 500 143.111C526.232 143.111 548.688 133.769 567.369 115.085C586.049 96.4012 595.39 73.9407 595.39 47.7037V23.8519C595.39 16.6963 597.576 10.9321 601.948 6.55926C606.32 2.18642 612.083 0 619.237 0H702.703L976.948 157.422C988.076 163.783 995.231 173.323 998.41 186.044C1001.59 198.765 1000 210.691 993.641 221.822L898.251 388.785C891.892 399.916 882.552 406.873 870.231 409.656C857.909 412.438 845.787 410.649 833.863 404.289L786.169 380.437V810.963C786.169 824.479 781.598 835.809 772.456 844.952C763.315 854.095 751.987 858.667 738.474 858.667H261.526C248.013 858.667 236.685 854.095 227.544 844.952C218.402 835.809 213.831 824.479 213.831 810.963V379.244ZM309.221 219.437V763.259H690.779V219.437L838.633 300.533L888.712 217.052L683.625 97.7926C671.701 138.341 649.245 171.932 616.256 198.567C583.267 225.201 544.515 238.519 500 238.519C455.485 238.519 416.733 225.201 383.744 198.567C350.755 171.932 328.299 138.341 316.375 97.7926L111.288 217.052L161.367 300.533L309.221 219.437Z" fill="#D44E7D"/>
<path d="M72 181.333L310.667 37.3333L478.667 204L670 68L934.667 204L852 360L746.667 316L722 814H274.667L263.333 316L135.333 360L72 181.333Z" fill="#D44E7D"/>
</svg>
